#!OML:ASF F:\VICON\USERDATA\INSTALL\rory3\rory3.ASF
:FULLY-SPECIFIED
:DEGREES
379
root 1.22487 17.7832 11.4236 -8.71589 -6.78279 2.93326
lowerback 17.9164 1.77774 -3.15609
upperback 1.20018 1.91807 2.24172
thorax -8.94887 1.09395 3.74738
lowerneck -8.1963 -3.05544 -3.58458
upperneck 32.2376 -3.1654 -1.91164
head 11.9482 -2.09658 -0.487143
rclavicle -1.16786e-014 -1.82882e-014
rhumerus -29.8587 -18.0702 -68.1171
rradius 34.3846
rwrist 36.1784
rhand -15.8796 16.7217
rfingers 7.12502
rthumb 10.3163 -13.0053
lclavicle -1.16786e-014 -1.82882e-014
lhumerus -47.0292 4.55895 80.5025
lradius 41.5689
lwrist 1.80943
lhand -7.39803 49.9467
lfingers 7.12502
lthumb 18.488 79.0881
rfemur -9.60789 -1.32684 19.5159
rtibia 74.8017
rfoot 1.78693 -13.9398
rtoes 10.7041
lfemur -11.81 -7.41945 -26.6114
ltibia 33.6996
lfoot -9.27296 -1.2142
ltoes -4.49819
380
root 1.23013 17.7904 11.633 -8.82787 -6.12955 4.05603
lowerback 17.6021 1.72118 -3.99963
upperback 1.09315 1.66628 2.03415
thorax -8.8867 1.00407 4.0714
lowerneck -8.13299 -2.99848 -3.4801
upperneck 32.6959 -2.96182 -2.36041
head 12.111 -2.05098 -0.655638
rclavicle 1.74931e-014 2.38542e-015
rhumerus -30.1089 -20.3743 -66.8929
rradius 31.856
rwrist 32.0079
rhand -13.2522 13.1282
rfingers 7.12502
rthumb 12.8501 -16.4562
lclavicle 1.74931e-014 2.38542e-015
lhumerus -46.7379 3.79512 80.971
lradius 42.4465
lwrist 1.12678
lhand -7.61388 48.9259
lfingers 7.12502
lthumb 18.2803 78.0869
rfemur -10.6713 -2.09949 17.8005
rtibia 75.1238
rfoot 0.434992 -13.0802
rtoes 11.6441
lfemur -10.8993 -7.67083 -28.2212
ltibia 33.4615
lfoot -9.78969 -1.12815
ltoes -4.69447
381
root 1.20445 17.7954 11.8129 -9.00536 -6.24182 3.28504
lowerback 18.0631 1.73032 -3.39542
upperback 0.906949 1.82408 2.43185
thorax -9.36001 1.07736 4.11653
lowerneck -7.67727 -2.93318 -3.40776
upperneck 32.9038 -2.79554 -2.69409
head 12.0944 -2.00924 -0.76812
rclavicle 2.08724e-015 1.59028e-015
rhumerus -30.7277 -22.3339 -65.5985
rradius 29.7194
rwrist 25.4088
rhand -10.7653 8.57554
rfingers 7.12502
rthumb 15.2465 -20.8426
lclavicle 2.08724e-015 1.59028e-015
lhumerus -46.5895 3.13051 81.2957
lradius 43.3702
lwrist 0.674211
lhand -7.58841 48.8216
lfingers 7.12502
lthumb 18.3048 77.9803
rfemur -11.7831 -2.00574 18.916
rtibia 75.1746
rfoot -0.856722 -12.999
rtoes 10.5005
lfemur -10.0588 -7.36428 -27.4228
ltibia 33.4168
lfoot -10.3252 -1.24317
ltoes -5.71065
382
root 1.21883 17.7887 11.9878 -8.80372 -5.30709 4.15151
lowerback 17.646 1.52402 -3.90697
upperback 0.926087 1.44756 2.2947
thorax -9.07734 0.909888 4.35969
lowerneck -7.68652 -2.92082 -3.70916
upperneck 32.8775 -2.70532 -2.71492
head 12.094 -2.00591 -0.712044
rclavicle -3.50358e-015 0
rhumerus -30.717 -25.3143 -64.0571
rradius 27.3418
rwrist 18.1446
rhand -9.56754 4.69144
rfingers 7.12502
rthumb 16.4001 -24.6352
lclavicle -3.50358e-015 0
lhumerus -45.9215 2.7755 81.635
lradius 44.5178
lwrist 0.431895
lhand -7.30631 49.3936
lfingers 7.12502
lthumb 18.5762 78.5266
rfemur -13.2429 -3.08473 17.4453
rtibia 75.1712
rfoot -1.94563 -11.7527
rtoes 7.4957
lfemur -9.57026 -7.7794 -28.7418
ltibia 33.3213
lfoot -10.7485 -1.42353
ltoes -5.34079
383
root 1.20879 17.788 12.177 -8.91449 -5.00878 3.93069
lowerback 17.6131 1.44451 -3.55082
upperback 0.99877 1.43074 2.46906
thorax -8.9729 0.887463 4.35022
lowerneck -7.73991 -2.93673 -3.81778
upperneck 32.9649 -2.65327 -2.85837
head 12.1425 -2.01291 -0.743678
rclavicle -1.16786e-015 -1.59028e-015
rhumerus -31.1877 -29.6319 -61.7848
rradius 24.7945
rwrist 11.9973
rhand -9.87564 2.05351
rfingers 7.12502
rthumb 16.1034 -27.2974
lclavicle -1.16786e-015 -1.59028e-015
lhumerus -45.4552 2.22476 81.9153
lradius 45.7788
lwrist 0.388722
lhand -7.4157 49.6302
lfingers 7.12502
lthumb 18.471 78.7733
rfemur -14.1532 -3.34851 17.6542
rtibia 74.8184
rfoot -1.8018 -11.6218
rtoes 9.35608
lfemur -8.82299 -7.7908 -28.6865
ltibia 33.5387
lfoot -11.3716 -1.61094
ltoes -4.45811
384
root 1.20328 17.7902 12.3603 -8.96433 -4.49561 4.0176
lowerback 17.4867 1.32712 -3.3863
upperback 1.17209 1.30983 2.46039
thorax -8.69518 0.813227 4.27578
lowerneck -7.85991 -3.04783 -3.69956
upperneck 32.8006 -2.81158 -2.92829
head 12.0959 -2.07467 -0.808699
rclavicle -9.56651e-015 1.59028e-015
rhumerus -32.1877 -34.1749 -59.2456
rradius 22.9933
rwrist 6.41182
rhand -10.4916 0.861321
rfingers 7.12502
rthumb 15.5102 -28.5366
lclavicle -9.56651e-015 1.59028e-015
lhumerus -44.7135 1.67362 82.0072
lradius 46.944
lwrist 0.0828623
lhand -7.48627 49.3587
lfingers 7.12502
lthumb 18.4031 78.5082
rfemur -15.065 -3.7836 17.4065
rtibia 74.3584
rfoot -2.84039 -11.3596
rtoes 11.2164
lfemur -8.23964 -7.97568 -28.9994
ltibia 33.6614
lfoot -11.8337 -1.82495
ltoes -3.16455
385
root 1.19575 17.7946 12.5394 -8.923 -4.11789 4.1566
lowerback 17.7507 1.25936 -3.35871
upperback 0.971632 1.22019 2.46075
thorax -9.05264 0.780727 4.28443
lowerneck -7.48736 -2.90802 -3.59537
upperneck 32.6108 -2.61643 -3.03174
head 11.9364 -1.98244 -0.829224
rclavicle -9.69075e-016 7.95139e-015
rhumerus -34.2767 -37.1614 -56.5311
rradius 22.2094
rwrist 0.622839
rhand -11.0534 0.80233
rfingers 7.12502
rthumb 14.969 -28.6367
lclavicle -9.69075e-016 7.95139e-015
lhumerus -44.7397 1.17718 81.9859
lradius 48.3797
lwrist -0.00353844
lhand -7.53006 49.0236
lfingers 7.12502
lthumb 18.361 78.1771
rfemur -16.1675 -4.03473 17.1617
rtibia 73.797
rfoot -4.27983 -11.4202
rtoes 12.5416
lfemur -7.84501 -8.03279 -29.2981
ltibia 33.8561
lfoot -12.2247 -2.10664
ltoes -1.38464
386
root 1.18532 17.7811 12.7174 -8.82601 -3.82283 4.24618
lowerback 17.8935 1.2001 -3.31942
upperback 0.804657 1.15101 2.49981
thorax -9.30949 0.755829 4.32417
lowerneck -7.3423 -2.9223 -3.66118
upperneck 32.5686 -2.60823 -3.10615
head 11.8904 -1.99392 -0.840784
rclavicle 4.1869e-015 -1.59028e-014
rhumerus -38.99 -46.3287 -48.7209
rradius 19.6887
rwrist 3.95129
rhand -10.9471 2.29696
rfingers 7.12502
rthumb 15.0714 -27.1344
lclavicle 4.1869e-015 -1.59028e-014
lhumerus -44.6743 0.719459 81.962
lradius 49.8299
lwrist 0.499538
lhand -7.92305 48.6619
lfingers 7.12502
lthumb 17.9829 77.8506
rfemur -17.3985 -4.21841 17.0178
rtibia 73.1898
rfoot -6.27959 -11.0332
rtoes 8.04675
lfemur -7.25141 -7.8813 -29.5283
ltibia 33.9685
lfoot -12.6716 -2.1614
ltoes -2.25094
387
root 1.17159 17.7612 12.8997 -8.82225 -3.41172 4.59459
lowerback 18.0116 1.14438 -3.5911
upperback 0.770376 1.01531 2.46282
thorax -9.40385 0.704931 4.47595
lowerneck -7.44039 -2.93325 -3.72077
upperneck 32.5599 -2.63134 -3.02628
head 11.9098 -2.0013 -0.805005
rclavicle -8.48562e-015 -2.06736e-014
rhumerus -42.6991 -49.2854 -44.407
rradius 19.8401
rwrist 2.48259
rhand -11.6048 0.759825
rfingers 7.12502
rthumb 14.4378 -28.718
lclavicle -8.48562e-015 -2.06736e-014
lhumerus -44.4953 0.368792 81.8804
lradius 51.3678
lwrist 1.45695
lhand -8.50498 48.3642
lfingers 7.12502
lthumb 17.4229 77.6033
rfemur -18.4976 -4.49705 16.5336
rtibia 72.517
rfoot -7.41742 -10.9966
rtoes 7.30567
lfemur -6.44988 -7.78017 -30.0711
ltibia 34.0436
lfoot -12.9948 -2.14118
ltoes -2.77833
388
root 1.15343 17.7529 13.0838 -8.78845 -2.99834 4.66246
lowerback 18.0598 1.04247 -3.65037
upperback 0.764558 0.872498 2.51834
thorax -9.42396 0.641521 4.60892
lowerneck -7.49941 -2.96005 -3.78424
upperneck 32.5059 -2.67818 -2.95236
head 11.9028 -2.01993 -0.771941
rclavicle -3.47873e-016 1.43125e-014
rhumerus -45.0867 -50.0478 -42.1407
rradius 20.5422
rwrist -0.4611
rhand -13.1304 -1.03361
rfingers 7.12502
rthumb 12.9675 -30.6106
lclavicle -3.47873e-016 1.43125e-014
lhumerus -44.3462 0.162406 81.7603
lradius 53.0069
lwrist 2.55728
lhand -8.96901 48.6071
lfingers 7.12502
lthumb 16.9763 77.8852
rfemur -19.5228 -4.71112 16.4163
rtibia 71.6826
rfoot -8.45706 -11.2681
rtoes 7.19071
lfemur -5.90726 -7.8464 -30.2845
ltibia 34.1019
lfoot -13.6016 -2.12169
ltoes -5.5644
